<?xml version="1.0" encoding="utf-8"?>
<!-- Generator: Adobe Illustrator 24.1.2, SVG Export Plug-In . SVG Version: 6.00 Build 0)  -->
<svg version="1.1" id="Camada_1" xmlns="http://www.w3.org/2000/svg" xmlns:xlink="http://www.w3.org/1999/xlink" x="0px" y="0px"
	 viewBox="0 0 135 59" style="enable-background:new 0 0 135 59;" xml:space="preserve">
<g>
	<g>
		
			<linearGradient id="SVGID_1_" gradientUnits="userSpaceOnUse" x1="8.8889" y1="43.7046" x2="8.8889" y2="25.9268" gradientTransform="matrix(1 0 0 -1 0 59.8898)">
			<stop  offset="0" style="stop-color:#FFFFFF"/>
			<stop  offset="1" style="stop-color:#A7A4F1"/>
		</linearGradient>
		<path style="fill:url(#SVGID_1_);" d="M9.9,18l-1,0.5l-1-0.5c-2.1-1.2-4.4-1.8-6.8-1.8H0v15.1h1.1c2,0,4,0.5,5.8,1.6l2,1.1l2-1.1
			c1.8-1,3.8-1.6,5.8-1.6h1.1V16.2h-1.1C14.3,16.2,12,16.8,9.9,18z M2.2,28.8V18.8c1.6,0.2,3.2,0.7,4.7,1.5l0.9,0.5v9.8
			C6,29.6,4.2,29,2.2,28.8z M15.6,28.8c-1.9,0.2-3.8,0.7-5.6,1.7v-9.8l0.9-0.5c1.5-0.8,3.1-1.3,4.7-1.5V28.8z"/>
	</g>
	<g>
		<path style="fill:#FFFFFF;" d="M30.1,39.1c-1.5,0-2.6-0.3-3.4-0.9l1.2-3.2c0.5,0.4,1.1,0.5,1.8,0.5c0.5,0,1-0.2,1.3-0.6
			c0.3-0.4,0.5-0.9,0.5-1.7V18.1h4.3v15.3c0,1.8-0.5,3.2-1.5,4.2C33.2,38.6,31.8,39.1,30.1,39.1z M33.5,16c-0.8,0-1.4-0.2-1.9-0.7
			c-0.5-0.5-0.7-1.1-0.7-1.8c0-0.7,0.2-1.3,0.7-1.8c0.5-0.5,1.1-0.7,1.9-0.7c0.8,0,1.4,0.2,1.9,0.7c0.5,0.5,0.7,1,0.7,1.7
			c0,0.7-0.2,1.4-0.7,1.8C34.9,15.7,34.3,16,33.5,16z"/>
		<path style="fill:#FFFFFF;" d="M45.2,33.6c-1.6,0-3-0.3-4.2-1c-1.2-0.7-2.2-1.6-2.9-2.8c-0.7-1.2-1-2.6-1-4.1c0-1.5,0.3-2.9,1-4.1
			c0.7-1.2,1.7-2.1,2.9-2.8c1.2-0.7,2.6-1,4.2-1c1.6,0,2.9,0.3,4.2,1c1.2,0.7,2.2,1.6,2.9,2.8c0.7,1.2,1,2.6,1,4.1
			c0,1.5-0.3,2.9-1,4.1c-0.7,1.2-1.7,2.1-2.9,2.8C48.2,33.3,46.8,33.6,45.2,33.6z M45.2,30c1.1,0,2-0.4,2.7-1.1
			c0.7-0.8,1.1-1.8,1.1-3.1c0-1.3-0.4-2.3-1.1-3.1c-0.7-0.8-1.6-1.2-2.7-1.2s-2,0.4-2.7,1.2c-0.7,0.8-1.1,1.8-1.1,3.1
			c0,1.3,0.4,2.3,1.1,3.1C43.2,29.6,44.1,30,45.2,30z"/>
		<path style="fill:#FFFFFF;" d="M69.7,18.1v15.3h-4.1v-1.8c-0.6,0.7-1.2,1.2-2,1.5c-0.8,0.3-1.6,0.5-2.5,0.5c-1.9,0-3.5-0.6-4.6-1.7
			c-1.1-1.2-1.7-2.9-1.7-5.2v-8.7H59v8c0,2.5,1,3.7,3,3.7c1,0,1.8-0.3,2.5-1c0.6-0.7,0.9-1.7,0.9-3.1v-7.6H69.7z"/>
		<path style="fill:#FFFFFF;" d="M76.3,20.1c0.5-0.7,1.2-1.3,2.1-1.7c0.9-0.4,1.9-0.6,3-0.6V22c-0.5,0-0.8-0.1-1-0.1c-1.2,0-2.2,0.4-2.9,1.1
			c-0.7,0.7-1,1.8-1,3.2v7.2h-4.3V18.1h4.1V20.1z"/>
		<path style="fill:#FFFFFF;" d="M91.6,17.9c1.8,0,3.3,0.6,4.4,1.7c1.1,1.1,1.7,2.8,1.7,5.1v8.8h-4.3v-8.1c0-1.2-0.3-2.1-0.8-2.7
			c-0.5-0.6-1.3-0.9-2.2-0.9c-1.1,0-1.9,0.4-2.6,1.1c-0.6,0.7-1,1.7-1,3.1v7.6h-4.3V18.1h4.1v1.8c0.6-0.6,1.3-1.1,2.1-1.5
			C89.6,18,90.6,17.9,91.6,17.9z"/>
		<path style="fill:#FFFFFF;" d="M106.1,17.9c2.3,0,4,0.6,5.3,1.7c1.2,1.1,1.8,2.8,1.8,5.1v8.7h-4v-1.9c-0.8,1.4-2.3,2.1-4.5,2.1
			c-1.1,0-2.1-0.2-3-0.6c-0.8-0.4-1.5-0.9-1.9-1.7c-0.4-0.7-0.7-1.5-0.7-2.4c0-1.4,0.5-2.5,1.5-3.4c1-0.8,2.6-1.2,4.8-1.2h3.4
			c0-1-0.3-1.7-0.8-2.2c-0.6-0.5-1.4-0.8-2.5-0.8c-0.8,0-1.6,0.1-2.3,0.4c-0.8,0.2-1.4,0.6-1.9,1l-1.5-3.1c0.8-0.6,1.8-1,2.9-1.4
			C103.8,18,104.9,17.9,106.1,17.9z M105.8,30.6c0.7,0,1.4-0.2,1.9-0.5c0.6-0.4,1-0.9,1.2-1.6V27H106c-1.8,0-2.6,0.6-2.6,1.8
			c0,0.6,0.2,1,0.6,1.4C104.5,30.5,105,30.6,105.8,30.6z"/>
		<path style="fill:#FFFFFF;" d="M115.7,12.3h4.3v21.1h-4.3V12.3z"/>
	</g>
</g>
</svg>
