<svg width="135" height="59" viewBox="0 0 135 59" fill="none" xmlns="http://www.w3.org/2000/svg">
<defs>
<filter id="filter0_d" x="11.6666" y="0" width="123.333" height="58.1481" filterUnits="userSpaceOnUse" color-interpolation-filters="sRGB">
<feFlood flood-opacity="0" result="BackgroundImageFix"/>
<feColorMatrix in="SourceAlpha" type="matrix" values="0 0 0 0 0 0 0 0 0 0 0 0 0 0 0 0 0 0 127 0"/>
<feOffset dy="4"/>
<feGaussianBlur stdDeviation="7.5"/>
<feColorMatrix type="matrix" values="0 0 0 0 0 0 0 0 0 0 0 0 0 0 0 0 0 0 0.25 0"/>
<feBlend mode="normal" in2="BackgroundImageFix" result="effect1_dropShadow"/>
<feBlend mode="normal" in="SourceGraphic" in2="effect1_dropShadow" result="shape"/>
</filter>
<linearGradient id="paint0_linear" x1="8.88889" y1="16.1852" x2="8.88889" y2="33.963" gradientUnits="userSpaceOnUse">
<stop stop-color="#44C2FD"/>
<stop offset="1" stop-color="#343090"/>
</linearGradient>
</defs>
<path d="M9.85556 18.0077L8.88889 18.5553L7.92222 18.0077C5.8065 16.8124 3.47521 16.1886 1.11111 16.1852H0V31.2938H1.11111C3.12994 31.2963 5.12083 31.8285 6.92778 32.8487L8.88889 33.963L10.85 32.8518C12.6567 31.8306 14.6476 31.2973 16.6667 31.2938H17.7778V16.1852H16.6667C14.3026 16.1886 11.9713 16.8124 9.85556 18.0077ZM2.22222 28.8229V18.7505C3.86004 18.9116 5.45641 19.421 6.92778 20.2519L7.77778 20.7429V30.5226C6.03728 29.5635 4.15219 28.9868 2.22222 28.8229ZM15.5556 28.8229C13.6256 28.9868 11.7405 29.5635 10 30.5226V20.7429L10.85 20.2614C12.3214 19.4304 13.9177 18.921 15.5556 18.7599V28.8229Z" fill="url(#paint0_linear)"/>
<g filter="url(#filter0_d)">
<path d="M30.0932 39.1481C28.5946 39.1481 27.4524 38.8635 26.6666 38.2943L27.8179 35.0782C28.3114 35.4387 28.9144 35.619 29.6272 35.619C30.1754 35.619 30.6049 35.4292 30.9155 35.0497C31.2262 34.6892 31.3816 34.139 31.3816 33.399V18.0868H35.6579V33.3705C35.6579 35.1541 35.1645 36.5582 34.1776 37.5828C33.209 38.6264 31.8476 39.1481 30.0932 39.1481ZM33.5197 15.9523C32.7339 15.9523 32.0943 15.7151 31.6009 15.2407C31.1074 14.7664 30.8607 14.1782 30.8607 13.4761C30.8607 12.7741 31.1074 12.1859 31.6009 11.7115C32.0943 11.2372 32.7339 11 33.5197 11C34.3055 11 34.9452 11.2277 35.4386 11.6831C35.932 12.1384 36.1787 12.7077 36.1787 13.3907C36.1787 14.1307 35.932 14.7474 35.4386 15.2407C34.9452 15.7151 34.3055 15.9523 33.5197 15.9523Z" fill="#343090"/>
<path d="M45.2424 33.6267C43.689 33.6267 42.291 33.2946 41.0483 32.6305C39.8238 31.9475 38.8644 31.0082 38.17 29.8129C37.4755 28.6175 37.1283 27.2608 37.1283 25.7429C37.1283 24.225 37.4755 22.8683 38.17 21.673C38.8644 20.4776 39.8238 19.5479 41.0483 18.8838C42.291 18.2007 43.689 17.8592 45.2424 17.8592C46.7957 17.8592 48.1846 18.2007 49.409 18.8838C50.6335 19.5479 51.5929 20.4776 52.2873 21.673C52.9818 22.8683 53.329 24.225 53.329 25.7429C53.329 27.2608 52.9818 28.6175 52.2873 29.8129C51.5929 31.0082 50.6335 31.9475 49.409 32.6305C48.1846 33.2946 46.7957 33.6267 45.2424 33.6267ZM45.2424 29.9836C46.3389 29.9836 47.2343 29.6042 47.9288 28.8452C48.6415 28.0672 48.9979 27.0332 48.9979 25.7429C48.9979 24.4527 48.6415 23.4281 47.9288 22.6691C47.2343 21.8912 46.3389 21.5022 45.2424 21.5022C44.1459 21.5022 43.2413 21.8912 42.5285 22.6691C41.8158 23.4281 41.4595 24.4527 41.4595 25.7429C41.4595 27.0332 41.8158 28.0672 42.5285 28.8452C43.2413 29.6042 44.1459 29.9836 45.2424 29.9836Z" fill="#343090"/>
<path d="M69.6743 18.0868V33.399H65.6172V31.5775C65.0507 32.2416 64.3746 32.7539 63.5887 33.1144C62.8029 33.4559 61.9531 33.6267 61.0394 33.6267C59.1022 33.6267 57.5671 33.048 56.4341 31.8905C55.3011 30.7331 54.7345 29.016 54.7345 26.7391V18.0868H59.0109V26.0844C59.0109 28.5511 60.0068 29.7844 61.9988 29.7844C63.0222 29.7844 63.8446 29.4429 64.4659 28.7598C65.0873 28.0578 65.3979 27.0237 65.3979 25.6575V18.0868H69.6743Z" fill="#343090"/>
<path d="M76.3498 20.1076C76.8615 19.3676 77.5468 18.8079 78.4058 18.4284C79.283 18.0489 80.2881 17.8592 81.4211 17.8592V21.9576C80.946 21.9196 80.6262 21.9006 80.4617 21.9006C79.2373 21.9006 78.2778 22.2612 77.5834 22.9822C76.8889 23.6842 76.5417 24.7468 76.5417 26.1698V33.399H72.2654V18.0868H76.3498V20.1076Z" fill="#343090"/>
<path d="M91.5571 17.8592C93.3846 17.8592 94.8557 18.4284 95.9705 19.5668C97.1035 20.7053 97.67 22.394 97.67 24.6329V33.399H93.3937V25.316C93.3937 24.1016 93.1378 23.2004 92.6261 22.6122C92.1144 22.005 91.3743 21.7014 90.4057 21.7014C89.3275 21.7014 88.4686 22.0524 87.829 22.7545C87.1894 23.4376 86.8695 24.4622 86.8695 25.8283V33.399H82.5932V18.0868H86.6777V19.8799C87.2442 19.2348 87.9478 18.7415 88.7884 18.3999C89.6291 18.0394 90.5519 17.8592 91.5571 17.8592Z" fill="#343090"/>
<path d="M106.124 17.8592C108.409 17.8592 110.163 18.4284 111.387 19.5668C112.612 20.6863 113.224 22.3845 113.224 24.6614V33.399H109.222V31.4921C108.418 32.9151 106.919 33.6267 104.726 33.6267C103.593 33.6267 102.606 33.4274 101.766 33.029C100.943 32.6305 100.313 32.0803 99.8741 31.3782C99.4355 30.6762 99.2162 29.8793 99.2162 28.9875C99.2162 27.5644 99.7279 26.445 100.751 25.6291C101.793 24.8132 103.392 24.4052 105.549 24.4052H108.948C108.948 23.4376 108.664 22.6976 108.098 22.1853C107.531 21.654 106.682 21.3883 105.549 21.3883C104.763 21.3883 103.986 21.5212 103.218 21.7868C102.469 22.0335 101.83 22.375 101.3 22.8114L99.7645 19.7091C100.569 19.1209 101.528 18.6656 102.643 18.343C103.776 18.0204 104.936 17.8592 106.124 17.8592ZM105.795 30.6382C106.526 30.6382 107.175 30.4675 107.741 30.1259C108.308 29.7654 108.71 29.2436 108.948 28.5606V26.9952H106.015C104.26 26.9952 103.383 27.5929 103.383 28.7883C103.383 29.3575 103.593 29.8129 104.013 30.1544C104.452 30.477 105.046 30.6382 105.795 30.6382Z" fill="#343090"/>
<path d="M115.724 12.2808H120V33.399H115.724V12.2808Z" fill="#343090"/>
</g>
</svg>
