<svg width="100" height="84" viewBox="0 0 100 84" fill="none" xmlns="http://www.w3.org/2000/svg">
<defs>
<linearGradient id="paint0_linear" x1="49.9965" y1="74.2964" x2="49.9965" y2="86.3256" gradientUnits="userSpaceOnUse">
<stop stop-color="white"/>
<stop offset="1" stop-color="#A7A4F1"/>
</linearGradient>
<linearGradient id="paint1_linear" x1="49.9965" y1="74.2964" x2="49.9965" y2="86.3256" gradientUnits="userSpaceOnUse">
<stop stop-color="white"/>
<stop offset="1" stop-color="#A7A4F1"/>
</linearGradient>
<linearGradient id="paint2_linear" x1="49.9965" y1="74.2964" x2="49.9965" y2="86.3256" gradientUnits="userSpaceOnUse">
<stop stop-color="white"/>
<stop offset="1" stop-color="#A7A4F1"/>
</linearGradient>
<linearGradient id="paint3_linear" x1="49.9965" y1="74.2964" x2="49.9965" y2="86.3256" gradientUnits="userSpaceOnUse">
<stop stop-color="white"/>
<stop offset="1" stop-color="#A7A4F1"/>
</linearGradient>
<linearGradient id="paint4_linear" x1="49.9965" y1="74.2964" x2="49.9965" y2="86.3256" gradientUnits="userSpaceOnUse">
<stop stop-color="white"/>
<stop offset="1" stop-color="#A7A4F1"/>
</linearGradient>
<linearGradient id="paint5_linear" x1="49.9965" y1="74.2964" x2="49.9965" y2="86.3256" gradientUnits="userSpaceOnUse">
<stop stop-color="white"/>
<stop offset="1" stop-color="#A7A4F1"/>
</linearGradient>
<linearGradient id="paint6_linear" x1="49.9965" y1="74.2964" x2="49.9965" y2="86.3256" gradientUnits="userSpaceOnUse">
<stop stop-color="white"/>
<stop offset="1" stop-color="#A7A4F1"/>
</linearGradient>
<linearGradient id="paint7_linear" x1="51.5691" y1="14.1791" x2="51.5691" y2="27.5242" gradientUnits="userSpaceOnUse">
<stop stop-color="white"/>
<stop offset="1" stop-color="#A7A4F1"/>
</linearGradient>
<linearGradient id="paint8_linear" x1="49.9705" y1="0" x2="49.9705" y2="14.0401" gradientUnits="userSpaceOnUse">
<stop stop-color="white"/>
<stop offset="1" stop-color="#A7A4F1"/>
</linearGradient>
<linearGradient id="paint9_linear" x1="44.6186" y1="8.89661" x2="44.6186" y2="30.3043" gradientUnits="userSpaceOnUse">
<stop stop-color="white"/>
<stop offset="1" stop-color="#A7A4F1"/>
</linearGradient>
</defs>
<path d="M19.3178 54.7274C22.4739 53.2003 24.4336 50.5788 24.4336 46.7865V46.7101C24.4336 44.0377 23.6192 42.1034 22.0666 40.5508C20.2596 38.7183 17.3072 37.573 12.7004 37.573H0V61.1158H8.67903V56.1527H10.537L18.7579 68.7004H28.6841L19.3178 54.7274ZM15.7801 47.4228C15.7801 49.0262 14.5075 49.9425 12.4459 49.9425H8.67903V44.8522H12.4713C14.482 44.8522 15.7801 45.6666 15.7801 47.3464V47.4228Z" fill="#FDFDFD"/>
<path d="M85.8994 37.013C79.791 37.013 74.7516 40.4999 72.69 45.463C72.4609 43.4269 71.6974 41.8488 70.3739 40.5508C68.5414 38.7183 65.6144 37.573 61.0077 37.573H48.3073V58.4688L39.501 37.3948H30.8729L22.7792 56.7381L25.7062 61.1158H56.9863V56.1527H58.8443L62.1275 61.1158H71.9774L67.5997 54.7274C69.3813 53.862 70.7557 52.6658 71.6465 51.1133C71.7737 55.1855 73.7081 58.7488 76.7368 61.1158H94.8075C98.0144 58.6469 99.9997 54.8547 99.9997 50.5788V50.5024C100.051 42.9687 93.9167 37.013 85.8994 37.013ZM32.4509 54.7019L35.1233 47.6264L37.7703 54.7019H32.4509ZM64.0873 47.4228C64.0873 49.0262 62.8147 49.9425 60.7532 49.9425H57.0118V44.8521H60.8041C62.8147 44.8521 64.1128 45.6666 64.1128 47.3464V47.4228H64.0873ZM91.2952 50.6551C91.2952 53.7093 89.2082 56.4581 85.8994 56.4581C82.5653 56.4581 80.4273 53.6839 80.4273 50.5788V50.5024C80.4273 47.4482 82.5144 44.6994 85.8231 44.6994C89.1573 44.6994 91.2952 47.4737 91.2952 50.5788V50.6551Z" fill="#FDFDFD"/>
<path d="M5.66706 82.0604H2.00971L1.25267 83.781H0.240021L3.35663 76.8988H4.32996L7.45641 83.781H6.42409L5.66706 82.0604ZM5.32295 81.2739L3.83838 77.9017L2.35381 81.2739H5.32295Z" fill="url(#paint0_linear)"/>
<path d="M19.4279 83.8596C18.7397 83.8596 18.117 83.7089 17.5599 83.4074C17.0093 83.0993 16.5767 82.6798 16.2621 82.1489C15.9475 81.6114 15.7902 81.0084 15.7902 80.3399C15.7902 79.6714 15.9475 79.0716 16.2621 78.5407C16.5767 78.0033 17.0126 77.5838 17.5697 77.2823C18.1269 76.9742 18.7495 76.8202 19.4377 76.8202C19.9752 76.8202 20.4668 76.912 20.9125 77.0955C21.3582 77.2724 21.7383 77.5379 22.0529 77.8918L21.4139 78.5112C20.8961 77.9672 20.2505 77.6952 19.4771 77.6952C18.9658 77.6952 18.5037 77.8099 18.0908 78.0393C17.6779 78.2687 17.3534 78.5866 17.1175 78.993C16.8881 79.3928 16.7734 79.8418 16.7734 80.3399C16.7734 80.838 16.8881 81.2903 17.1175 81.6967C17.3534 82.0965 17.6779 82.4111 18.0908 82.6405C18.5037 82.8699 18.9658 82.9846 19.4771 82.9846C20.2439 82.9846 20.8895 82.7093 21.4139 82.1587L22.0529 82.7781C21.7383 83.1321 21.3549 83.4008 20.9026 83.5843C20.4569 83.7678 19.9654 83.8596 19.4279 83.8596Z" fill="url(#paint1_linear)"/>
<path d="M35.6407 82.0604H31.9834L31.2264 83.781H30.2137L33.3303 76.8988H34.3036L37.4301 83.781H36.3978L35.6407 82.0604ZM35.2966 81.2739L33.8121 77.9017L32.3275 81.2739H35.2966Z" fill="url(#paint2_linear)"/>
<path d="M46.4203 76.8988H49.3206C50.0482 76.8988 50.6938 77.043 51.2574 77.3314C51.8211 77.6198 52.257 78.0262 52.565 78.5505C52.8797 79.0683 53.037 79.6648 53.037 80.3399C53.037 81.015 52.8797 81.6147 52.565 82.1391C52.257 82.6569 51.8211 83.06 51.2574 83.3484C50.6938 83.6368 50.0482 83.781 49.3206 83.781H46.4203V76.8988ZM49.2616 82.9256C49.8188 82.9256 50.3071 82.8175 50.7265 82.6012C51.1526 82.3849 51.4803 82.0834 51.7097 81.6967C51.9391 81.3034 52.0538 80.8511 52.0538 80.3399C52.0538 79.8287 51.9391 79.3797 51.7097 78.993C51.4803 78.5997 51.1526 78.2949 50.7265 78.0786C50.3071 77.8623 49.8188 77.7542 49.2616 77.7542H47.4035V82.9256H49.2616Z" fill="url(#paint3_linear)"/>
<path d="M67.5009 82.9256V83.781H62.5065V76.8988H67.3633V77.7542H63.4896V79.868H66.9405V80.7037H63.4896V82.9256H67.5009Z" fill="url(#paint4_linear)"/>
<path d="M83.4372 83.781L83.4273 78.7668L80.9399 82.9453H80.4877L78.0003 78.7963V83.781H77.0565V76.8988H77.8626L80.7335 81.736L83.565 76.8988H84.3712L84.381 83.781H83.4372Z" fill="url(#paint5_linear)"/>
<path d="M97.0448 81.4017V83.781H96.0715V81.382L93.3383 76.8988H94.3903L96.5926 80.5267L98.8047 76.8988H99.778L97.0448 81.4017Z" fill="url(#paint6_linear)"/>
<path d="M61.3133 14.6258C61.3133 14.5979 61.3133 14.5979 61.3133 14.57C61.3133 14.5421 61.3133 14.5421 61.2853 14.5142C61.2853 14.4862 61.2853 14.4862 61.2572 14.4583C61.2572 14.4583 61.2572 14.4304 61.2292 14.4304C61.2292 14.4025 61.2011 14.4025 61.2011 14.3746C61.2011 14.3466 61.1731 14.3466 61.1731 14.3466L61.1451 14.3187C61.1451 14.3187 61.117 14.2908 61.089 14.2908C61.089 14.2908 61.0609 14.2629 61.0329 14.2629C61.0048 14.2629 61.0048 14.235 60.9768 14.235C60.9488 14.235 60.9488 14.2071 60.9207 14.2071C60.8927 14.2071 60.8927 14.2071 60.8646 14.1791C60.8366 14.1791 60.8366 14.1791 60.8085 14.1791C60.7805 14.1791 60.7805 14.1791 60.7525 14.1791H60.7244C60.6964 14.1791 60.6964 14.1791 60.6683 14.1791C60.6403 14.1791 60.6403 14.1791 60.6123 14.1791C60.5842 14.1791 60.5842 14.1791 60.5562 14.2071C60.5281 14.2071 60.5281 14.2071 60.5001 14.235L50.0122 19.1207L42.581 15.6309C42.3006 15.4913 41.9641 15.6309 41.8239 15.9101C41.6837 16.1893 41.8239 16.5243 42.1043 16.6639L49.7599 20.2375C49.844 20.2654 49.9281 20.2933 50.0122 20.2933C50.0964 20.2933 50.1805 20.2654 50.2646 20.2375L60.2197 15.5751V22.1359C58.9017 23.4481 57.3874 24.4811 55.7329 25.2069C53.9101 25.9887 51.9752 26.3795 50.0122 26.3795C48.0493 26.3795 46.1143 25.9887 44.3196 25.2069C43.7307 24.9557 43.1699 24.6486 42.6371 24.3415C42.3847 24.174 42.0202 24.2577 41.88 24.5369C41.7117 24.7882 41.7958 25.1511 42.0762 25.2907C42.6651 25.6536 43.2821 25.9607 43.899 26.2399C45.8339 27.0775 47.9091 27.5242 50.0403 27.5242C52.1715 27.5242 54.2466 27.1054 56.1816 26.2399C58.0604 25.4303 59.7429 24.2577 61.2011 22.778C61.3133 22.6664 61.3694 22.5268 61.3694 22.3872V14.7096C61.3414 14.6817 61.3133 14.6538 61.3133 14.6258Z" fill="url(#paint7_linear)"/>
<path d="M70.5143 9.62331L50.2224 0.0628975C50.0824 -0.0209658 49.8865 -0.0209658 49.7466 0.0628975L29.4267 9.62331C29.2308 9.70718 29.1188 9.90286 29.1188 10.1265C29.1188 10.3501 29.2308 10.5458 29.4267 10.6297L36.3119 13.8724C36.5918 14.0122 36.9277 13.8724 37.0676 13.5928C37.2076 13.3133 37.0676 12.9778 36.7878 12.8381L30.9661 10.0985L49.9705 1.20903L68.9469 10.1265L62.9013 12.9778C62.6214 13.1176 62.5095 13.4531 62.6214 13.7326C62.7054 13.9283 62.9293 14.0401 63.1252 14.0401C63.2092 14.0401 63.2931 14.0122 63.3771 13.9842L70.5143 10.6297C70.7102 10.5458 70.8221 10.3501 70.8221 10.1265C70.8221 9.90286 70.7102 9.70718 70.5143 9.62331Z" fill="url(#paint8_linear)"/>
<path d="M50.2144 9.96266C50.4943 9.82295 50.6062 9.48765 50.4663 9.20823C50.3263 8.92881 49.9905 8.81704 49.7106 8.95675L38.9905 14.1539C38.9905 14.1539 38.9625 14.1539 38.9625 14.1819C38.9345 14.1819 38.9345 14.2098 38.9065 14.2098C38.8785 14.2098 38.8785 14.2378 38.8785 14.2378L38.8506 14.2657C38.8506 14.2657 38.8226 14.2936 38.8226 14.3216C38.8226 14.3216 38.7946 14.3495 38.7946 14.3775C38.7946 14.4054 38.7666 14.4054 38.7666 14.4334C38.7666 14.4613 38.7386 14.4613 38.7386 14.4892C38.7386 14.5172 38.7386 14.5172 38.7106 14.5451C38.7106 14.5731 38.7106 14.5731 38.7106 14.601C38.7106 14.6289 38.7106 14.6289 38.7106 14.6569V14.6848V29.7455C38.7106 30.0528 38.9625 30.3043 39.2704 30.3043C39.5783 30.3043 39.8302 30.0528 39.8302 29.7455V15.0481L50.2144 9.96266Z" fill="url(#paint9_linear)"/>
</svg>
