<svg width="112" height="81" viewBox="0 0 112 81" fill="none" xmlns="http://www.w3.org/2000/svg">
<defs>
<linearGradient id="paint0_linear" x1="59.8764" y1="37.8167" x2="59.8764" y2="73.4088" gradientUnits="userSpaceOnUse">
<stop stop-color="white"/>
<stop offset="1" stop-color="#A7A4F1"/>
</linearGradient>
<linearGradient id="paint1_linear" x1="55.6127" y1="0" x2="55.6127" y2="37.4459" gradientUnits="userSpaceOnUse">
<stop stop-color="white"/>
<stop offset="1" stop-color="#A7A4F1"/>
</linearGradient>
<linearGradient id="paint2_linear" x1="41.3387" y1="23.7281" x2="41.3387" y2="80.8238" gradientUnits="userSpaceOnUse">
<stop stop-color="white"/>
<stop offset="1" stop-color="#A7A4F1"/>
</linearGradient>
</defs>
<path d="M85.8648 39.008C85.8648 38.9336 85.8648 38.9336 85.8648 38.8591C85.8648 38.7846 85.8648 38.7846 85.79 38.7102C85.79 38.6357 85.79 38.6357 85.7152 38.5613C85.7152 38.5613 85.7152 38.4868 85.6405 38.4868C85.6405 38.4123 85.5657 38.4123 85.5657 38.3379C85.5657 38.2634 85.4909 38.2634 85.4909 38.2634L85.4161 38.189C85.4161 38.189 85.3413 38.1145 85.2665 38.1145C85.2665 38.1145 85.1917 38.04 85.1169 38.04C85.0421 38.04 85.0421 37.9656 84.9673 37.9656C84.8925 37.9656 84.8925 37.8911 84.8178 37.8911C84.743 37.8911 84.743 37.8911 84.6682 37.8167C84.5934 37.8167 84.5934 37.8167 84.5186 37.8167C84.4438 37.8167 84.4438 37.8167 84.369 37.8167H84.2942C84.2194 37.8167 84.2194 37.8167 84.1446 37.8167C84.0698 37.8167 84.0698 37.8167 83.9951 37.8167C83.9203 37.8167 83.9203 37.8166 83.8455 37.8911C83.7707 37.8911 83.7707 37.8911 83.6959 37.9656L55.7241 50.9962L35.9045 41.6886C35.1566 41.3163 34.2591 41.6886 33.8852 42.4332C33.5112 43.1778 33.8852 44.0713 34.6331 44.4436L55.051 53.9746C55.2754 54.049 55.4997 54.1235 55.7241 54.1235C55.9485 54.1235 56.1728 54.049 56.3972 53.9746L82.948 41.5397V59.0379C79.4328 62.5375 75.3941 65.2926 70.9814 67.2286C66.12 69.3135 60.9595 70.3559 55.7241 70.3559C50.4887 70.3559 45.3282 69.3135 40.5416 67.2286C38.9709 66.5584 37.4751 65.7393 36.0541 64.9203C35.381 64.4735 34.4087 64.6969 34.0348 65.4415C33.586 66.1117 33.8104 67.0796 34.5583 67.4519C36.1289 68.4199 37.7743 69.239 39.4197 69.9836C44.5803 72.2174 50.1148 73.4088 55.7989 73.4088C61.483 73.4088 67.0175 72.2919 72.1781 69.9836C77.1891 67.8242 81.6765 64.6969 85.5657 60.7505C85.8648 60.4527 86.0144 60.0803 86.0144 59.708V39.2314C85.9396 39.1569 85.8648 39.0825 85.8648 39.008Z" fill="url(#paint0_linear)"/>
<path d="M110.404 25.666L56.2845 0.167752C55.9113 -0.0559172 55.3888 -0.0559172 55.0155 0.167752L0.821127 25.666C0.298592 25.8897 0 26.4116 0 27.008C0 27.6045 0.298592 28.1264 0.821127 28.35L19.1845 36.9986C19.931 37.3713 20.8268 36.9986 21.2 36.253C21.5733 35.5074 21.2 34.6128 20.4535 34.24L4.92676 26.9335L55.6127 3.22456L106.224 27.008L90.1001 34.6128C89.3536 34.9855 89.055 35.8802 89.3536 36.6258C89.5775 37.1477 90.1747 37.4459 90.6972 37.4459C90.9212 37.4459 91.1451 37.3713 91.3691 37.2968L110.404 28.35C110.927 28.1264 111.225 27.6045 111.225 27.008C111.225 26.4116 110.927 25.8897 110.404 25.666Z" fill="url(#paint1_linear)"/>
<path d="M56.2631 26.5713C57.0096 26.1987 57.3082 25.3044 56.935 24.5592C56.5617 23.814 55.6659 23.5159 54.9194 23.8885L26.3283 37.7497C26.3283 37.7497 26.2536 37.7497 26.2536 37.8242C26.179 37.8242 26.179 37.8988 26.1043 37.8988C26.0297 37.8988 26.0297 37.9733 26.0297 37.9733L25.955 38.0478C25.955 38.0478 25.8804 38.1223 25.8804 38.1969C25.8804 38.1969 25.8057 38.2714 25.8057 38.3459C25.8057 38.4204 25.7311 38.4204 25.7311 38.4949C25.7311 38.5695 25.6564 38.5695 25.6564 38.644C25.6564 38.7185 25.6564 38.7185 25.5818 38.793C25.5818 38.8676 25.5818 38.8676 25.5818 38.9421C25.5818 39.0166 25.5818 39.0166 25.5818 39.0911V39.1656L25.5818 79.3334C25.5818 80.1531 26.2536 80.8238 27.0748 80.8238C27.896 80.8238 28.5678 80.1531 28.5678 79.3334L28.5678 40.1344L56.2631 26.5713Z" fill="url(#paint2_linear)"/>
</svg>
